<svg width="25" height="25" viewBox="0 0 25 25" fill="none" xmlns="http://www.w3.org/2000/svg">
<path d="M17.1267 13.9145C19.682 11.3592 19.682 7.21621 17.1267 4.66046C14.5712 2.10521 10.4285 2.10521 7.87298 4.66046C5.31748 7.21621 5.31748 11.3592 7.87298 13.9145C8.7874 14.8315 9.95443 15.4551 11.225 15.7057V17.7282H9.90024C9.84951 17.7282 9.79929 17.7381 9.75242 17.7575C9.70556 17.7769 9.66298 17.8054 9.62713 17.8413C9.59128 17.8772 9.56285 17.9197 9.54348 17.9666C9.52411 18.0135 9.51417 18.0637 9.51423 18.1145V19.836C9.51423 20.049 9.68724 20.2217 9.90024 20.222H11.225V21.87C11.225 22.0582 11.36 22.2147 11.5385 22.2487V22.256H13.3327C13.5457 22.256 13.7187 22.0832 13.7187 21.87H13.719V20.222H15.0997C15.313 20.222 15.4857 20.0492 15.4857 19.836V18.1145C15.4859 18.0637 15.476 18.0134 15.4567 17.9665C15.4374 17.9196 15.4089 17.877 15.3731 17.8411C15.3372 17.8052 15.2946 17.7767 15.2477 17.7573C15.2008 17.738 15.1505 17.7281 15.0997 17.7282H13.7192V15.7162C15.0109 15.4733 16.1988 14.8451 17.1267 13.9145V13.9145ZM12.5 13.3372C10.2635 13.3372 8.45023 11.5242 8.45048 9.28771C8.45048 7.05121 10.2635 5.23796 12.5002 5.23796C14.7367 5.23796 16.55 7.05096 16.5497 9.28746C16.5495 11.524 14.7365 13.3372 12.5 13.3372V13.3372Z" fill="#F8A23D"/>
</svg>
