<svg width="25" height="25" viewBox="0 0 25 25" fill="none" xmlns="http://www.w3.org/2000/svg">
<path d="M20.8543 4.5823L20.8545 4.58105C20.8545 4.3678 20.682 4.19505 20.469 4.1948V4.1908H15.2695V4.19505C15.1678 4.19597 15.0705 4.23701 14.9989 4.30924C14.9273 4.38148 14.8871 4.47907 14.887 4.5808V6.29855C14.887 6.5103 15.058 6.68205 15.2695 6.68405V6.6843H16.5573L14.379 8.86255C13.2925 8.11815 12.0058 7.72067 10.6888 7.72255C7.07501 7.72255 4.14551 10.652 4.14551 14.2658C4.14551 17.8795 7.07501 20.8093 10.6888 20.8093C14.3025 20.8093 17.232 17.8795 17.232 14.2658C17.2339 12.9734 16.8512 11.7097 16.1325 10.6355L18.3603 8.4078V9.77605C18.3603 9.9893 18.533 10.162 18.7463 10.162H20.468C20.681 10.162 20.854 9.9893 20.854 9.77605L20.8538 9.7748V4.5823H20.8543ZM10.6888 18.3155C8.45226 18.3155 6.63926 16.5025 6.63926 14.2658C6.63926 12.0293 8.45226 10.216 10.6888 10.216C12.9253 10.216 14.7385 12.0293 14.7385 14.2658C14.7385 16.5025 12.9253 18.3155 10.6888 18.3155V18.3155Z" fill="#F8A23D"/>
</svg>
